<?xml version="1.0" standalone="no"?>
<!DOCTYPE svg PUBLIC "-//W3C//DTD SVG 20010904//EN"
 "http://www.w3.org/TR/2001/REC-SVG-20010904/DTD/svg10.dtd">
<svg version="1.0" xmlns="http://www.w3.org/2000/svg"
 width="740.000000pt" height="740.000000pt" viewBox="0 0 740.000000 740.000000"
 preserveAspectRatio="xMidYMid meet">

<g transform="translate(0.000000,740.000000) scale(0.100000,-0.100000)"
fill="#000000" stroke="none">
<path d="M2100 6416 c-569 -82 -1000 -396 -1250 -911 -140 -288 -198 -569
-187 -904 16 -516 200 -1023 582 -1606 451 -688 1124 -1312 1885 -1750 211
-122 529 -275 570 -275 62 0 491 221 763 391 543 342 1046 789 1425 1267 487
613 781 1247 842 1814 71 666 -187 1305 -675 1673 -380 286 -930 387 -1418
260 -355 -92 -667 -300 -910 -605 l-28 -35 -22 30 c-234 315 -623 556 -1023
635 -140 28 -416 36 -554 16z m365 -265 c24 -5 -13 -6 -90 -4 -71 3 -134 6
-140 8 -21 7 192 3 230 -4z m-310 -10 c-24 -10 -141 -24 -133 -16 3 3 32 9 64
14 77 11 94 12 69 2z m423 -8 c-10 -2 -26 -2 -35 0 -10 3 -2 5 17 5 19 0 27
-2 18 -5z m59 -9 c-3 -3 -12 -4 -19 -1 -8 3 -5 6 6 6 11 1 17 -2 13 -5z m-764
-51 c-7 -2 -19 -2 -25 0 -7 3 -2 5 12 5 14 0 19 -2 13 -5z m952 -3 c3 -6 -1
-7 -9 -4 -18 7 -21 14 -7 14 6 0 13 -4 16 -10z m-1075 -40 c-8 -5 -19 -10 -25
-10 -5 0 -3 5 5 10 8 5 20 10 25 10 6 0 3 -5 -5 -10z m2550 -109 c0 -5 -7 -12
-16 -15 -14 -5 -15 -4 -4 9 14 17 20 19 20 6z m-2755 -29 c-3 -3 -11 0 -18 7
-9 10 -8 11 6 5 10 -3 15 -9 12 -12z m2685 -18 c-8 -8 -23 -20 -34 -25 -13 -7
-9 -1 9 15 34 29 43 33 25 10z m-1922 -24 c19 -5 41 -6 50 -3 13 4 14 3 4 -5
-11 -7 -10 -10 3 -16 9 -3 22 -3 27 1 6 3 9 2 6 -3 -5 -8 23 -43 29 -36 2 1 3
0 3 -3 0 -3 11 -18 25 -33 14 -15 25 -30 25 -35 0 -4 5 -5 12 -1 7 4 8 3 4 -5
-4 -6 -2 -19 5 -27 6 -8 15 -58 18 -112 7 -95 6 -98 -21 -139 -16 -23 -27 -45
-26 -50 2 -4 0 -8 -3 -8 -14 0 -38 -28 -32 -39 3 -6 2 -8 -2 -3 -11 10 -46
-23 -38 -36 3 -5 1 -7 -5 -3 -6 3 -26 0 -44 -8 -18 -8 -64 -24 -102 -36 -39
-12 -86 -30 -105 -41 -20 -11 -28 -18 -18 -15 11 4 16 2 12 -5 -4 -5 -14 -7
-24 -4 -19 6 -85 -38 -73 -49 4 -4 3 -7 -3 -6 -24 5 -35 -2 -36 -22 0 -13 -3
-17 -6 -10 -4 10 -9 9 -24 -4 -10 -9 -16 -20 -14 -24 3 -4 -3 -14 -13 -21 -16
-13 -16 -13 -2 5 11 14 11 17 2 12 -21 -13 -103 -127 -97 -136 3 -4 -2 -11
-11 -14 -8 -3 -12 -10 -9 -16 3 -5 1 -18 -5 -27 -11 -17 -11 -17 -6 0 3 9 3
17 0 17 -12 0 -88 -177 -88 -207 -1 -17 -4 -29 -7 -27 -9 5 -21 -45 -14 -56 4
-6 2 -10 -3 -10 -9 0 -26 -85 -42 -213 -14 -111 -45 -162 -119 -193 -58 -24
-154 -13 -189 23 -8 7 -18 11 -23 8 -5 -4 -10 -1 -10 4 -4 29 -20 62 -28 57
-3 -2 -7 6 -7 17 -4 64 -22 177 -23 148 0 -19 -4 -32 -7 -28 -11 11 17 371 37
475 19 100 72 276 90 298 5 6 10 20 12 31 2 12 9 28 16 37 7 8 9 21 5 27 -4 7
-3 9 3 6 11 -7 60 81 55 98 -2 5 -1 7 3 3 8 -8 131 143 127 155 -1 5 2 6 6 3
12 -7 44 28 35 39 -5 4 -3 5 4 2 6 -4 21 5 32 19 12 15 21 23 21 19 0 -4 7 -2
15 5 8 7 12 17 8 23 -3 6 -1 7 6 3 12 -8 73 37 65 48 -2 3 -1 4 2 1 7 -5 64
22 64 31 0 3 -5 2 -12 -2 -7 -4 -8 -3 -4 4 4 6 14 8 23 5 12 -5 14 -3 8 7 -5
8 -4 11 2 7 6 -4 24 0 39 8 16 8 23 15 17 15 -7 0 -13 4 -13 8 0 4 9 8 19 8
11 0 17 -4 14 -9 -3 -5 18 3 46 17 28 15 53 26 56 25 19 -3 64 14 59 23 -4 6
2 8 16 3 15 -5 20 -4 16 4 -8 12 104 5 162 -9z m1003 -87 c13 -16 12 -17 -3
-4 -10 7 -18 15 -18 17 0 8 8 3 21 -13z m662 -135 c-6 -7 -27 -35 -48 -63 -41
-55 -52 -68 -40 -45 13 24 87 120 92 120 3 0 1 -6 -4 -12z m-432 -185 c-12
-20 -14 -14 -5 12 4 9 9 14 11 11 3 -2 0 -13 -6 -23z m124 -93 c3 -5 2 -10 -4
-10 -5 0 -13 5 -16 10 -3 6 -2 10 4 10 5 0 13 -4 16 -10z m-2594 -23 c-10 -9
-11 -8 -5 6 3 10 9 15 12 12 3 -3 0 -11 -7 -18z m2636 17 c-3 -3 -12 -4 -19
-1 -8 3 -5 6 6 6 11 1 17 -2 13 -5z m-2267 -30 c0 -8 -19 -13 -24 -6 -3 5 1 9
9 9 8 0 15 -2 15 -3z m-62 -119 c-3 -3 -9 2 -12 12 -6 14 -5 15 5 6 7 -7 10
-15 7 -18z m-421 -277 c-3 -7 -5 -2 -5 12 0 14 2 19 5 13 2 -7 2 -19 0 -25z
m-10 -95 c-2 -16 -4 -3 -4 27 0 30 2 43 4 28 2 -16 2 -40 0 -55z m310 -115
c-2 -13 -4 -3 -4 22 0 25 2 35 4 23 2 -13 2 -33 0 -45z m-320 -15 c-2 -16 -4
-5 -4 22 0 28 2 40 4 28 2 -13 2 -35 0 -50z m815 2 c3 -14 1 -25 -3 -25 -5 0
-9 11 -9 25 0 14 2 25 4 25 2 0 6 -11 8 -25z m-25 -127 c-3 -8 -6 -5 -6 6 -1
11 2 17 5 13 3 -3 4 -12 1 -19z m-780 -130 c-3 -7 -5 -2 -5 12 0 14 2 19 5 13
2 -7 2 -19 0 -25z m357 -186 c3 -5 -1 -9 -9 -9 -8 0 -12 4 -9 9 3 4 7 8 9 8 2
0 6 -4 9 -8z m-297 -114 c-3 -8 -6 -5 -6 6 -1 11 2 17 5 13 3 -3 4 -12 1 -19z
m743 -309 c20 -11 44 -33 55 -49 11 -16 22 -27 25 -25 3 2 7 -4 8 -13 1 -9 4
-42 8 -73 5 -42 2 -64 -10 -88 -9 -17 -14 -37 -10 -43 4 -6 3 -8 -3 -5 -6 4
-21 -5 -34 -19 -60 -64 -156 -82 -236 -43 -24 11 -43 25 -43 30 0 5 -6 9 -14
9 -7 0 -16 9 -19 21 -3 12 -10 18 -16 15 -11 -7 -11 -5 -15 117 -2 50 2 90 7
94 6 4 7 0 3 -8 -4 -8 2 -3 13 11 11 14 21 31 21 39 0 8 3 12 6 9 3 -4 22 5
41 18 20 13 42 24 49 24 8 0 14 4 14 8 0 15 111 -7 150 -29z m-622 -44 c-3 -3
-9 2 -12 12 -6 14 -5 15 5 6 7 -7 10 -15 7 -18z m26 -51 c3 -8 2 -12 -4 -9 -6
3 -10 10 -10 16 0 14 7 11 14 -7z m713 -106 c-2 -13 -4 -5 -4 17 -1 22 1 32 4
23 2 -10 2 -28 0 -40z m-619 -93 c-3 -3 -9 2 -12 12 -6 14 -5 15 5 6 7 -7 10
-15 7 -18z m48 -77 c36 -71 25 -68 -15 4 -18 33 -28 57 -22 54 6 -4 23 -30 37
-58z m381 -24 c-3 -3 -12 -4 -19 -1 -8 3 -5 6 6 6 11 1 17 -2 13 -5z m-187
-304 c6 -11 8 -20 6 -20 -3 0 -10 9 -16 20 -6 11 -8 20 -6 20 3 0 10 -9 16
-20z m44 -65 l17 -30 -20 24 c-12 13 -21 28 -21 34 0 12 0 11 24 -28z m135
-189 c-2 -2 -13 8 -23 22 l-19 27 24 -22 c12 -12 21 -24 18 -27z m132 -163
c13 -16 12 -17 -3 -4 -17 13 -22 21 -14 21 2 0 10 -8 17 -17z m226 -243 c12
-14 23 -28 23 -32 0 -7 -47 38 -70 68 -14 18 -14 18 5 4 10 -8 29 -26 42 -40z"/>
</g>
</svg>
